<?xml version="1.0" encoding="UTF-8"?>
<svg version="1.1" xmlns="http://www.w3.org/2000/svg" width="130" height="126">
<path d="M0 0 C3.25135812 3.56600568 4.7831713 6.12135417 5 11 C4.34 11.66 3.68 12.32 3 13 C3.3185177 15.10820797 3.3185177 15.10820797 4 17 C4.67804688 16.96519531 5.35609375 16.93039063 6.0546875 16.89453125 C17.02890644 16.57533652 24.90917197 19.69673928 34.53125 24.79296875 C36.84145284 26.14641188 36.84145284 26.14641188 39 26 C39.33 25.34 39.66 24.68 40 24 C41.485 24.495 41.485 24.495 43 25 C42.94199219 25.76876465 42.88398437 26.5375293 42.82421875 27.32958984 C42.43018677 36.71458734 44.59043246 43.9536404 48 52.625 C48.94526815 55.09348212 49.87882151 57.56614832 50.8125 60.0390625 C51.23144531 61.11365723 51.65039062 62.18825195 52.08203125 63.29541016 C53 66 53 66 53 69 C53.66 69 54.32 69 55 69 C54.02903542 71.81579728 53.0441061 72.96750077 50.625 74.75 C44.03763101 77.02150655 36.94878088 76.92622184 30.3125 74.75 C27 73 27 73 26.29296875 70.890625 C26.19628906 70.26671875 26.09960938 69.6428125 26 69 C26.66 69 27.32 69 28 69 C28.24492188 67.78441406 28.48984375 66.56882812 28.7421875 65.31640625 C30.13180125 59.06314437 32.1378625 53.02179203 34.125 46.9375 C34.49753906 45.78572266 34.87007813 44.63394531 35.25390625 43.44726562 C36.16562019 40.63030331 37.0810604 37.81461174 38 35 C37.67 34.67 37.34 34.34 37 34 C36.95936168 32.33382885 36.957279 30.66611905 37 29 C36.32195312 28.88785156 35.64390625 28.77570312 34.9453125 28.66015625 C31.45537687 27.8779293 28.23292904 26.66780594 24.875 25.4375 C18.46983006 23.18033485 12.82845175 22.36116356 6 23 C6.020625 24.11375 6.04125 25.2275 6.0625 26.375 C6 30 6 30 5 32 C4.83797236 35.88866341 5.0441666 39.57593995 5.5 43.4375 C6.00796317 48.13253101 6.11236295 52.78269562 6.125 57.5 C6.12951172 58.20697021 6.13402344 58.91394043 6.13867188 59.64233398 C6.12380445 64.7523911 6.12380445 64.7523911 5 67 C4.85056144 69.26744274 4.77855098 71.5403175 4.75 73.8125 C4.71132812 75.64748047 4.71132812 75.64748047 4.671875 77.51953125 C5.02144435 81.22746332 5.99620089 82.94014459 8 86 C7.2703845 88.91846201 6.0004409 90.99927692 4.4375 93.5625 C3.12887975 95.78146478 2.46467564 97.49075157 2 100 C1.01 100 0.02 100 -1 100 C-1.433125 98.9275 -1.86625 97.855 -2.3125 96.75 C-3.29776129 94.40705808 -4.14227623 92.82215471 -5.75 90.8125 C-7 89 -7 89 -6.8125 87 C-6 85 -6 85 -4.9609375 83.3203125 C-3.63098317 80.10895937 -3.77274729 77.3370993 -3.8125 73.875 C-3.82216797 72.01488281 -3.82216797 72.01488281 -3.83203125 70.1171875 C-3.78737405 67.09321888 -3.78737405 67.09321888 -5 65 C-5.096046 63.46199541 -5.13074622 61.9199055 -5.1328125 60.37890625 C-5.13458496 59.44804199 -5.13635742 58.51717773 -5.13818359 57.55810547 C-5.13165771 56.07528076 -5.13165771 56.07528076 -5.125 54.5625 C-5.1245166 53.5636377 -5.1240332 52.56477539 -5.12353516 51.53564453 C-5.09564701 45.64162919 -4.8964412 39.86286224 -4.0234375 34.0234375 C-3.99449752 31.52495229 -4.86295683 30.19596887 -6 28 C-6 26.68 -6 25.36 -6 24 C-14.06265458 21.31244847 -21.28263856 24.23587316 -29 27 C-30.09248047 27.56074219 -30.09248047 27.56074219 -31.20703125 28.1328125 C-33 29 -33 29 -36 29 C-36.83323441 37.19694352 -33.77393056 44.24935041 -31 51.8125 C-30.28259104 53.7950043 -29.56884119 55.77870572 -28.86010742 57.764328 C-28.22002794 59.55360282 -27.56927933 61.33905033 -26.91796875 63.12426758 C-26 66 -26 66 -26 69 C-25.34 69 -24.68 69 -24 69 C-24.97096458 71.81579728 -25.9558939 72.96750077 -28.375 74.75 C-34.96236899 77.02150655 -42.05121912 76.92622184 -48.6875 74.75 C-52 73 -52 73 -52.70703125 70.890625 C-52.80371094 70.26671875 -52.90039062 69.6428125 -53 69 C-52.34 69 -51.68 69 -51 69 C-50.74476562 67.72382812 -50.48953125 66.44765625 -50.2265625 65.1328125 C-49.260349 60.77207116 -47.87385222 56.6873723 -46.33422852 52.50073242 C-42.73946317 42.66064556 -40.98613404 34.47661493 -42 24 C-41.01 24 -40.02 24 -39 24 C-38.67 24.66 -38.34 25.32 -38 26 C-32.44275275 24.26493185 -27.35677996 21.86210012 -22.12109375 19.33984375 C-17.36170856 17.29670342 -13.33707247 16.87545696 -8.1875 16.9375 C-7.21167969 16.94652344 -6.23585937 16.95554687 -5.23046875 16.96484375 C-4.12638672 16.98224609 -4.12638672 16.98224609 -3 17 C-2.3185177 15.10820797 -2.3185177 15.10820797 -2 13 C-2.66 12.34 -3.32 11.68 -4 11 C-3.70608813 6.59132188 -2.46007056 3.63662604 0 0 Z M-38 40 C-38 49.57 -38 59.14 -38 69 C-34.7 69 -31.4 69 -28 69 C-29.3606681 62.24476394 -31.28709973 55.91424405 -33.625 49.4375 C-33.94984375 48.52419922 -34.2746875 47.61089844 -34.609375 46.66992188 C-35.40153629 44.44488059 -36.1984659 42.22167825 -37 40 C-37.33 40 -37.66 40 -38 40 Z M41 41 C41 50.24 41 59.48 41 69 C44.3 69 47.6 69 51 69 C48.57711594 59.44306841 45.35433983 50.2597148 42 41 C41.67 41 41.34 41 41 41 Z M-41 42 C-42.34065238 45.93504649 -43.67126071 49.87341646 -45 53.8125 C-45.57234375 55.49182617 -45.57234375 55.49182617 -46.15625 57.20507812 C-46.5171875 58.27822266 -46.878125 59.35136719 -47.25 60.45703125 C-47.58515625 61.44678955 -47.9203125 62.43654785 -48.265625 63.45629883 C-49.13868755 66.03911618 -49.13868755 66.03911618 -49 69 C-46.03 69 -43.06 69 -40 69 C-40 60.09 -40 51.18 -40 42 C-40.33 42 -40.66 42 -41 42 Z M38 42 C36.65934762 45.93504649 35.32873929 49.87341646 34 53.8125 C33.42765625 55.49182617 33.42765625 55.49182617 32.84375 57.20507812 C32.4828125 58.27822266 32.121875 59.35136719 31.75 60.45703125 C31.41484375 61.44678955 31.0796875 62.43654785 30.734375 63.45629883 C29.86131245 66.03911618 29.86131245 66.03911618 30 69 C32.97 69 35.94 69 39 69 C39 60.09 39 51.18 39 42 C38.67 42 38.34 42 38 42 Z " fill="#2B4053" transform="translate(64,15)"/>
<path d="M0 0 C-0.66 0.66 -1.32 1.32 -2 2 C-2 2.66 -2 3.32 -2 4 C-4.10171867 4.8394882 -6.20646625 5.67139656 -8.3125 6.5 C-10.07013672 7.19609375 -10.07013672 7.19609375 -11.86328125 7.90625 C-15 9 -15 9 -18 9 C-18.83323441 17.19694352 -15.77393056 24.24935041 -13 31.8125 C-12.28259104 33.7950043 -11.56884119 35.77870572 -10.86010742 37.764328 C-10.22002794 39.55360282 -9.56927933 41.33905033 -8.91796875 43.12426758 C-8 46 -8 46 -8 49 C-7.34 49 -6.68 49 -6 49 C-6.97096458 51.81579728 -7.9558939 52.96750077 -10.375 54.75 C-16.96236899 57.02150655 -24.05121912 56.92622184 -30.6875 54.75 C-34 53 -34 53 -34.70703125 50.890625 C-34.80371094 50.26671875 -34.90039062 49.6428125 -35 49 C-34.34 49 -33.68 49 -33 49 C-32.74476562 47.72382812 -32.48953125 46.44765625 -32.2265625 45.1328125 C-31.260349 40.77207116 -29.87385222 36.6873723 -28.33422852 32.50073242 C-24.73946317 22.66064556 -22.98613404 14.47661493 -24 4 C-23.01 4 -22.02 4 -21 4 C-20.67 4.66 -20.34 5.32 -20 6 C-15.07472755 4.57426324 -10.83158186 2.39441053 -6.3671875 -0.07421875 C-3.71112758 -1.11297486 -2.62120182 -0.99653986 0 0 Z M-20 20 C-20 29.57 -20 39.14 -20 49 C-16.7 49 -13.4 49 -10 49 C-11.3606681 42.24476394 -13.28709973 35.91424405 -15.625 29.4375 C-15.94984375 28.52419922 -16.2746875 27.61089844 -16.609375 26.66992188 C-17.40153629 24.44488059 -18.1984659 22.22167825 -19 20 C-19.33 20 -19.66 20 -20 20 Z M-23 22 C-24.34065238 25.93504649 -25.67126071 29.87341646 -27 33.8125 C-27.57234375 35.49182617 -27.57234375 35.49182617 -28.15625 37.20507812 C-28.5171875 38.27822266 -28.878125 39.35136719 -29.25 40.45703125 C-29.58515625 41.44678955 -29.9203125 42.43654785 -30.265625 43.45629883 C-31.13868755 46.03911618 -31.13868755 46.03911618 -31 49 C-28.03 49 -25.06 49 -22 49 C-22 40.09 -22 31.18 -22 22 C-22.33 22 -22.66 22 -23 22 Z " fill="#2A3D4F" transform="translate(46,35)"/>
<path d="M0 0 C2.97 0 5.94 0 9 0 C9.19441368 2.2910905 9.38033135 4.58290337 9.5625 6.875 C9.66691406 8.15117188 9.77132812 9.42734375 9.87890625 10.7421875 C10 14 10 14 9 16 C8.85056144 18.26744274 8.77855098 20.5403175 8.75 22.8125 C8.72421875 24.03582031 8.6984375 25.25914063 8.671875 26.51953125 C9.02144435 30.22746332 9.99620089 31.94014459 12 35 C11.2703845 37.91846201 10.0004409 39.99927692 8.4375 42.5625 C7.12887975 44.78146478 6.46467564 46.49075157 6 49 C5.01 49 4.02 49 3 49 C2.566875 47.9275 2.13375 46.855 1.6875 45.75 C0.70223871 43.40705808 -0.14227623 41.82215471 -1.75 39.8125 C-3 38 -3 38 -2.8125 36 C-2 34 -2 34 -0.9609375 32.3203125 C0.36901683 29.10895937 0.22725271 26.3370993 0.1875 22.875 C0.18105469 21.63492188 0.17460938 20.39484375 0.16796875 19.1171875 C0.21262595 16.09321888 0.21262595 16.09321888 -1 14 C-0.91161539 11.62216895 -0.75653579 9.24654854 -0.5625 6.875 C-0.46066406 5.59367187 -0.35882813 4.31234375 -0.25390625 2.9921875 C-0.17011719 2.00476563 -0.08632813 1.01734375 0 0 Z " fill="#52C2CE" transform="translate(60,66)"/>
<path d="M0 0 C0.66 0 1.32 0 2 0 C3.40973577 4.17960902 4.81545201 8.3605421 6.2175293 12.54272461 C6.69462792 13.96398991 7.17280504 15.38489366 7.65209961 16.80541992 C8.34255238 18.85240089 9.02906076 20.90066929 9.71484375 22.94921875 C10.12855225 24.17987061 10.54226074 25.41052246 10.96850586 26.6784668 C11.83095554 29.45565683 12.50376138 32.13891132 13 35 C13.66 35 14.32 35 15 35 C14.02903542 37.81579728 13.0441061 38.96750077 10.625 40.75 C4.03763101 43.02150655 -3.05121912 42.92622184 -9.6875 40.75 C-13 39 -13 39 -13.70703125 36.890625 C-13.80371094 36.26671875 -13.90039062 35.6428125 -14 35 C-13.34 35 -12.68 35 -12 35 C-11.7525 33.77152344 -11.505 32.54304688 -11.25 31.27734375 C-9.90614332 25.2382695 -7.96650204 19.42281857 -6 13.5625 C-5.64421875 12.47517578 -5.2884375 11.38785156 -4.921875 10.26757812 C-4.57640625 9.23181641 -4.2309375 8.19605469 -3.875 7.12890625 C-3.40707031 5.72233765 -3.40707031 5.72233765 -2.9296875 4.28735352 C-2 2 -2 2 0 0 Z M1 7 C1 16.24 1 25.48 1 35 C4.3 35 7.6 35 11 35 C8.57711594 25.44306841 5.35433983 16.2597148 2 7 C1.67 7 1.34 7 1 7 Z M-2 8 C-3.34065238 11.93504649 -4.67126071 15.87341646 -6 19.8125 C-6.57234375 21.49182617 -6.57234375 21.49182617 -7.15625 23.20507812 C-7.5171875 24.27822266 -7.878125 25.35136719 -8.25 26.45703125 C-8.58515625 27.44678955 -8.9203125 28.43654785 -9.265625 29.45629883 C-10.13868755 32.03911618 -10.13868755 32.03911618 -10 35 C-7.03 35 -4.06 35 -1 35 C-1 26.09 -1 17.18 -1 8 C-1.33 8 -1.66 8 -2 8 Z " fill="#1D2935" transform="translate(104,49)"/>
<path d="M0 0 C9.0598059 -0.12224626 17.97746114 0.16069406 27 1 C26.8125 2.875 26.8125 2.875 26 5 C20.1983382 8.24604524 12.82375326 7.81091981 6.4765625 6.46484375 C4.3125 5.75 4.3125 5.75 1 4 C0.29296875 1.890625 0.29296875 1.890625 0 0 Z " fill="#2B3F53" transform="translate(90,84)"/>
<path d="M0 0 C5.61 0 11.22 0 17 0 C17 0.66 17 1.32 17 2 C11.39 2 5.78 2 0 2 C0 1.34 0 0.68 0 0 Z " fill="#1D2A36" transform="translate(56,118)"/>
</svg>
